<svg width="663" height="104" version="1.1" xmlns="http://www.w3.org/2000/svg"><rect x="27" y="20" width="10" height="10" style="fill:#eeeeee;" data-score="0" data-date="2023-11-12"/><rect x="27" y="32" width="10" height="10" style="fill:#eeeeee;" data-score="0" data-date="2023-11-13"/><rect x="27" y="44" width="10" height="10" style="fill:#eeeeee;" data-score="0" data-date="2023-11-14"/><rect x="27" y="56" width="10" height="10" style="fill:#c6e48b;" data-score="1" data-date="2023-11-15"/><rect x="27" y="68" width="10" height="10" style="fill:#eeeeee;" data-score="0" data-date="2023-11-16"/><rect x="27" y="80" width="10" height="10" style="fill:#eeeeee;" data-score="0" data-date="2023-11-17"/><rect x="27" y="92" width="10" height="10" style="fill:#eeeeee;" data-score="0" data-date="2023-11-18"/><rect x="39" y="20" width="10" height="10" style="fill:#eeeeee;" data-score="0" data-date="2023-11-19"/><rect x="39" y="32" width="10" height="10" style="fill:#c6e48b;" data-score="1" data-date="2023-11-20"/><rect x="39" y="44" width="10" height="10" style="fill:#eeeeee;" data-score="0" data-date="2023-11-21"/><rect x="39" y="56" width="10" height="10" style="fill:#c6e48b;" data-score="1" data-date="2023-11-22"/><rect x="39" y="68" width="10" height="10" style="fill:#eeeeee;" data-score="0" data-date="2023-11-23"/><rect x="39" y="80" width="10" height="10" style="fill:#eeeeee;" data-score="0" data-date="2023-11-24"/><rect x="39" y="92" width="10" height="10" style="fill:#eeeeee;" data-score="0" data-date="2023-11-25"/><rect x="51" y="20" width="10" height="10" style="fill:#eeeeee;" data-score="0" data-date="2023-11-26"/><rect x="51" y="32" width="10" height="10" style="fill:#eeeeee;" data-score="0" data-date="2023-11-27"/><rect x="51" y="44" width="10" height="10" style="fill:#eeeeee;" data-score="0" data-date="2023-11-28"/><rect x="51" y="56" width="10" height="10" style="fill:#eeeeee;" data-score="0" data-date="2023-11-29"/><rect x="51" y="68" width="10" height="10" style="fill:#eeeeee;" data-score="0" data-date="2023-11-30"/><rect x="51" y="80" width="10" height="10" style="fill:#c6e48b;" data-score="1" data-date="2023-12-01"/><rect x="51" y="92" width="10" height="10" style="fill:#eeeeee;" data-score="0" data-date="2023-12-02"/><rect x="63" y="20" width="10" height="10" style="fill:#c6e48b;" data-score="3" data-date="2023-12-03"/><rect x="63" y="32" width="10" height="10" style="fill:#eeeeee;" data-score="0" data-date="2023-12-04"/><rect x="63" y="44" width="10" height="10" style="fill:#eeeeee;" data-score="0" data-date="2023-12-05"/><rect x="63" y="56" width="10" height="10" style="fill:#eeeeee;" data-score="0" data-date="2023-12-06"/><rect x="63" y="68" width="10" height="10" style="fill:#eeeeee;" data-score="0" data-date="2023-12-07"/><rect x="63" y="80" width="10" height="10" style="fill:#c6e48b;" data-score="1" data-date="2023-12-08"/><rect x="63" y="92" width="10" height="10" style="fill:#eeeeee;" data-score="0" data-date="2023-12-09"/><rect x="75" y="20" width="10" height="10" style="fill:#eeeeee;" data-score="0" data-date="2023-12-10"/><rect x="75" y="32" width="10" height="10" style="fill:#7bc96f;" data-score="4" data-date="2023-12-11"/><rect x="75" y="44" width="10" height="10" style="fill:#c6e48b;" data-score="1" data-date="2023-12-12"/><rect x="75" y="56" width="10" height="10" style="fill:#eeeeee;" data-score="0" data-date="2023-12-13"/><rect x="75" y="68" width="10" height="10" style="fill:#eeeeee;" data-score="0" data-date="2023-12-14"/><rect x="75" y="80" width="10" height="10" style="fill:#eeeeee;" data-score="0" data-date="2023-12-15"/><rect x="75" y="92" width="10" height="10" style="fill:#eeeeee;" data-score="0" data-date="2023-12-16"/><rect x="87" y="20" width="10" height="10" style="fill:#c6e48b;" data-score="2" data-date="2023-12-17"/><rect x="87" y="32" width="10" height="10" style="fill:#7bc96f;" data-score="4" data-date="2023-12-18"/><rect x="87" y="44" width="10" height="10" style="fill:#eeeeee;" data-score="0" data-date="2023-12-19"/><rect x="87" y="56" width="10" height="10" style="fill:#eeeeee;" data-score="0" data-date="2023-12-20"/><rect x="87" y="68" width="10" height="10" style="fill:#eeeeee;" data-score="0" data-date="2023-12-21"/><rect x="87" y="80" width="10" height="10" style="fill:#c6e48b;" data-score="1" data-date="2023-12-22"/><rect x="87" y="92" width="10" height="10" style="fill:#eeeeee;" data-score="0" data-date="2023-12-23"/><rect x="99" y="20" width="10" height="10" style="fill:#eeeeee;" data-score="0" data-date="2023-12-24"/><rect x="99" y="32" width="10" height="10" style="fill:#eeeeee;" data-score="0" data-date="2023-12-25"/><rect x="99" y="44" width="10" height="10" style="fill:#eeeeee;" data-score="0" data-date="2023-12-26"/><rect x="99" y="56" width="10" height="10" style="fill:#c6e48b;" data-score="2" data-date="2023-12-27"/><rect x="99" y="68" width="10" height="10" style="fill:#7bc96f;" data-score="4" data-date="2023-12-28"/><rect x="99" y="80" width="10" height="10" style="fill:#eeeeee;" data-score="0" data-date="2023-12-29"/><rect x="99" y="92" width="10" height="10" style="fill:#eeeeee;" data-score="0" data-date="2023-12-30"/><rect x="111" y="20" width="10" height="10" style="fill:#eeeeee;" data-score="0" data-date="2023-12-31"/><rect x="111" y="32" width="10" height="10" style="fill:#eeeeee;" data-score="0" data-date="2024-01-01"/><rect x="111" y="44" width="10" height="10" style="fill:#eeeeee;" data-score="0" data-date="2024-01-02"/><rect x="111" y="56" width="10" height="10" style="fill:#c6e48b;" data-score="1" data-date="2024-01-03"/><rect x="111" y="68" width="10" height="10" style="fill:#c6e48b;" data-score="2" data-date="2024-01-04"/><rect x="111" y="80" width="10" height="10" style="fill:#c6e48b;" data-score="1" data-date="2024-01-05"/><rect x="111" y="92" width="10" height="10" style="fill:#eeeeee;" data-score="0" data-date="2024-01-06"/><rect x="123" y="20" width="10" height="10" style="fill:#eeeeee;" data-score="0" data-date="2024-01-07"/><rect x="123" y="32" width="10" height="10" style="fill:#c6e48b;" data-score="1" data-date="2024-01-08"/><rect x="123" y="44" width="10" height="10" style="fill:#c6e48b;" data-score="1" data-date="2024-01-09"/><rect x="123" y="56" width="10" height="10" style="fill:#c6e48b;" data-score="1" data-date="2024-01-10"/><rect x="123" y="68" width="10" height="10" style="fill:#eeeeee;" data-score="0" data-date="2024-01-11"/><rect x="123" y="80" width="10" height="10" style="fill:#eeeeee;" data-score="0" data-date="2024-01-12"/><rect x="123" y="92" width="10" height="10" style="fill:#eeeeee;" data-score="0" data-date="2024-01-13"/><rect x="135" y="20" width="10" height="10" style="fill:#eeeeee;" data-score="0" data-date="2024-01-14"/><rect x="135" y="32" width="10" height="10" style="fill:#c6e48b;" data-score="1" data-date="2024-01-15"/><rect x="135" y="44" width="10" height="10" style="fill:#eeeeee;" data-score="0" data-date="2024-01-16"/><rect x="135" y="56" width="10" height="10" style="fill:#c6e48b;" data-score="1" data-date="2024-01-17"/><rect x="135" y="68" width="10" height="10" style="fill:#eeeeee;" data-score="0" data-date="2024-01-18"/><rect x="135" y="80" width="10" height="10" style="fill:#eeeeee;" data-score="0" data-date="2024-01-19"/><rect x="135" y="92" width="10" height="10" style="fill:#eeeeee;" data-score="0" data-date="2024-01-20"/><rect x="147" y="20" width="10" height="10" style="fill:#eeeeee;" data-score="0" data-date="2024-01-21"/><rect x="147" y="32" width="10" height="10" style="fill:#c6e48b;" data-score="1" data-date="2024-01-22"/><rect x="147" y="44" width="10" height="10" style="fill:#c6e48b;" data-score="1" data-date="2024-01-23"/><rect x="147" y="56" width="10" height="10" style="fill:#eeeeee;" data-score="0" data-date="2024-01-24"/><rect x="147" y="68" width="10" height="10" style="fill:#eeeeee;" data-score="0" data-date="2024-01-25"/><rect x="147" y="80" width="10" height="10" style="fill:#eeeeee;" data-score="0" data-date="2024-01-26"/><rect x="147" y="92" width="10" height="10" style="fill:#eeeeee;" data-score="0" data-date="2024-01-27"/><rect x="159" y="20" width="10" height="10" style="fill:#eeeeee;" data-score="0" data-date="2024-01-28"/><rect x="159" y="32" width="10" height="10" style="fill:#c6e48b;" data-score="1" data-date="2024-01-29"/><rect x="159" y="44" width="10" height="10" style="fill:#eeeeee;" data-score="0" data-date="2024-01-30"/><rect x="159" y="56" width="10" height="10" style="fill:#eeeeee;" data-score="0" data-date="2024-01-31"/><rect x="159" y="68" width="10" height="10" style="fill:#eeeeee;" data-score="0" data-date="2024-02-01"/><rect x="159" y="80" width="10" height="10" style="fill:#eeeeee;" data-score="0" data-date="2024-02-02"/><rect x="159" y="92" width="10" height="10" style="fill:#eeeeee;" data-score="0" data-date="2024-02-03"/><rect x="171" y="20" width="10" height="10" style="fill:#eeeeee;" data-score="0" data-date="2024-02-04"/><rect x="171" y="32" width="10" height="10" style="fill:#c6e48b;" data-score="1" data-date="2024-02-05"/><rect x="171" y="44" width="10" height="10" style="fill:#c6e48b;" data-score="1" data-date="2024-02-06"/><rect x="171" y="56" width="10" height="10" style="fill:#c6e48b;" data-score="1" data-date="2024-02-07"/><rect x="171" y="68" width="10" height="10" style="fill:#c6e48b;" data-score="1" data-date="2024-02-08"/><rect x="171" y="80" width="10" height="10" style="fill:#c6e48b;" data-score="1" data-date="2024-02-09"/><rect x="171" y="92" width="10" height="10" style="fill:#eeeeee;" data-score="0" data-date="2024-02-10"/><rect x="183" y="20" width="10" height="10" style="fill:#eeeeee;" data-score="0" data-date="2024-02-11"/><rect x="183" y="32" width="10" height="10" style="fill:#eeeeee;" data-score="0" data-date="2024-02-12"/><rect x="183" y="44" width="10" height="10" style="fill:#c6e48b;" data-score="2" data-date="2024-02-13"/><rect x="183" y="56" width="10" height="10" style="fill:#eeeeee;" data-score="0" data-date="2024-02-14"/><rect x="183" y="68" width="10" height="10" style="fill:#eeeeee;" data-score="0" data-date="2024-02-15"/><rect x="183" y="80" width="10" height="10" style="fill:#eeeeee;" data-score="0" data-date="2024-02-16"/><rect x="183" y="92" width="10" height="10" style="fill:#eeeeee;" data-score="0" data-date="2024-02-17"/><rect x="195" y="20" width="10" height="10" style="fill:#eeeeee;" data-score="0" data-date="2024-02-18"/><rect x="195" y="32" width="10" height="10" style="fill:#c6e48b;" data-score="1" data-date="2024-02-19"/><rect x="195" y="44" width="10" height="10" style="fill:#c6e48b;" data-score="1" data-date="2024-02-20"/><rect x="195" y="56" width="10" height="10" style="fill:#eeeeee;" data-score="0" data-date="2024-02-21"/><rect x="195" y="68" width="10" height="10" style="fill:#c6e48b;" data-score="1" data-date="2024-02-22"/><rect x="195" y="80" width="10" height="10" style="fill:#c6e48b;" data-score="1" data-date="2024-02-23"/><rect x="195" y="92" width="10" height="10" style="fill:#eeeeee;" data-score="0" data-date="2024-02-24"/><rect x="207" y="20" width="10" height="10" style="fill:#eeeeee;" data-score="0" data-date="2024-02-25"/><rect x="207" y="32" width="10" height="10" style="fill:#eeeeee;" data-score="0" data-date="2024-02-26"/><rect x="207" y="44" width="10" height="10" style="fill:#eeeeee;" data-score="0" data-date="2024-02-27"/><rect x="207" y="56" width="10" height="10" style="fill:#eeeeee;" data-score="0" data-date="2024-02-28"/><rect x="207" y="68" width="10" height="10" style="fill:#c6e48b;" data-score="1" data-date="2024-02-29"/><rect x="207" y="80" width="10" height="10" style="fill:#eeeeee;" data-score="0" data-date="2024-03-01"/><rect x="207" y="92" width="10" height="10" style="fill:#eeeeee;" data-score="0" data-date="2024-03-02"/><rect x="219" y="20" width="10" height="10" style="fill:#eeeeee;" data-score="0" data-date="2024-03-03"/><rect x="219" y="32" width="10" height="10" style="fill:#c6e48b;" data-score="1" data-date="2024-03-04"/><rect x="219" y="44" width="10" height="10" style="fill:#eeeeee;" data-score="0" data-date="2024-03-05"/><rect x="219" y="56" width="10" height="10" style="fill:#c6e48b;" data-score="1" data-date="2024-03-06"/><rect x="219" y="68" width="10" height="10" style="fill:#eeeeee;" data-score="0" data-date="2024-03-07"/><rect x="219" y="80" width="10" height="10" style="fill:#eeeeee;" data-score="0" data-date="2024-03-08"/><rect x="219" y="92" width="10" height="10" style="fill:#eeeeee;" data-score="0" data-date="2024-03-09"/><rect x="231" y="20" width="10" height="10" style="fill:#eeeeee;" data-score="0" data-date="2024-03-10"/><rect x="231" y="32" width="10" height="10" style="fill:#eeeeee;" data-score="0" data-date="2024-03-11"/><rect x="231" y="44" width="10" height="10" style="fill:#c6e48b;" data-score="1" data-date="2024-03-12"/><rect x="231" y="56" width="10" height="10" style="fill:#eeeeee;" data-score="0" data-date="2024-03-13"/><rect x="231" y="68" width="10" height="10" style="fill:#eeeeee;" data-score="0" data-date="2024-03-14"/><rect x="231" y="80" width="10" height="10" style="fill:#eeeeee;" data-score="0" data-date="2024-03-15"/><rect x="231" y="92" width="10" height="10" style="fill:#c6e48b;" data-score="1" data-date="2024-03-16"/><rect x="243" y="20" width="10" height="10" style="fill:#c6e48b;" data-score="1" data-date="2024-03-17"/><rect x="243" y="32" width="10" height="10" style="fill:#c6e48b;" data-score="1" data-date="2024-03-18"/><rect x="243" y="44" width="10" height="10" style="fill:#eeeeee;" data-score="0" data-date="2024-03-19"/><rect x="243" y="56" width="10" height="10" style="fill:#c6e48b;" data-score="1" data-date="2024-03-20"/><rect x="243" y="68" width="10" height="10" style="fill:#eeeeee;" data-score="0" data-date="2024-03-21"/><rect x="243" y="80" width="10" height="10" style="fill:#eeeeee;" data-score="0" data-date="2024-03-22"/><rect x="243" y="92" width="10" height="10" style="fill:#c6e48b;" data-score="1" data-date="2024-03-23"/><rect x="255" y="20" width="10" height="10" style="fill:#eeeeee;" data-score="0" data-date="2024-03-24"/><rect x="255" y="32" width="10" height="10" style="fill:#c6e48b;" data-score="1" data-date="2024-03-25"/><rect x="255" y="44" width="10" height="10" style="fill:#eeeeee;" data-score="0" data-date="2024-03-26"/><rect x="255" y="56" width="10" height="10" style="fill:#eeeeee;" data-score="0" data-date="2024-03-27"/><rect x="255" y="68" width="10" height="10" style="fill:#c6e48b;" data-score="2" data-date="2024-03-28"/><rect x="255" y="80" width="10" height="10" style="fill:#eeeeee;" data-score="0" data-date="2024-03-29"/><rect x="255" y="92" width="10" height="10" style="fill:#eeeeee;" data-score="0" data-date="2024-03-30"/><rect x="267" y="20" width="10" height="10" style="fill:#eeeeee;" data-score="0" data-date="2024-03-31"/><rect x="267" y="32" width="10" height="10" style="fill:#eeeeee;" data-score="0" data-date="2024-04-01"/><rect x="267" y="44" width="10" height="10" style="fill:#c6e48b;" data-score="1" data-date="2024-04-02"/><rect x="267" y="56" width="10" height="10" style="fill:#c6e48b;" data-score="1" data-date="2024-04-03"/><rect x="267" y="68" width="10" height="10" style="fill:#c6e48b;" data-score="2" data-date="2024-04-04"/><rect x="267" y="80" width="10" height="10" style="fill:#eeeeee;" data-score="0" data-date="2024-04-05"/><rect x="267" y="92" width="10" height="10" style="fill:#eeeeee;" data-score="0" data-date="2024-04-06"/><rect x="279" y="20" width="10" height="10" style="fill:#eeeeee;" data-score="0" data-date="2024-04-07"/><rect x="279" y="32" width="10" height="10" style="fill:#c6e48b;" data-score="3" data-date="2024-04-08"/><rect x="279" y="44" width="10" height="10" style="fill:#c6e48b;" data-score="1" data-date="2024-04-09"/><rect x="279" y="56" width="10" height="10" style="fill:#c6e48b;" data-score="1" data-date="2024-04-10"/><rect x="279" y="68" width="10" height="10" style="fill:#c6e48b;" data-score="1" data-date="2024-04-11"/><rect x="279" y="80" width="10" height="10" style="fill:#c6e48b;" data-score="1" data-date="2024-04-12"/><rect x="279" y="92" width="10" height="10" style="fill:#c6e48b;" data-score="1" data-date="2024-04-13"/><rect x="291" y="20" width="10" height="10" style="fill:#c6e48b;" data-score="1" data-date="2024-04-14"/><rect x="291" y="32" width="10" height="10" style="fill:#c6e48b;" data-score="1" data-date="2024-04-15"/><rect x="291" y="44" width="10" height="10" style="fill:#eeeeee;" data-score="0" data-date="2024-04-16"/><rect x="291" y="56" width="10" height="10" style="fill:#c6e48b;" data-score="1" data-date="2024-04-17"/><rect x="291" y="68" width="10" height="10" style="fill:#c6e48b;" data-score="1" data-date="2024-04-18"/><rect x="291" y="80" width="10" height="10" style="fill:#c6e48b;" data-score="1" data-date="2024-04-19"/><rect x="291" y="92" width="10" height="10" style="fill:#eeeeee;" data-score="0" data-date="2024-04-20"/><rect x="303" y="20" width="10" height="10" style="fill:#eeeeee;" data-score="0" data-date="2024-04-21"/><rect x="303" y="32" width="10" height="10" style="fill:#c6e48b;" data-score="2" data-date="2024-04-22"/><rect x="303" y="44" width="10" height="10" style="fill:#c6e48b;" data-score="1" data-date="2024-04-23"/><rect x="303" y="56" width="10" height="10" style="fill:#c6e48b;" data-score="1" data-date="2024-04-24"/><rect x="303" y="68" width="10" height="10" style="fill:#eeeeee;" data-score="0" data-date="2024-04-25"/><rect x="303" y="80" width="10" height="10" style="fill:#c6e48b;" data-score="1" data-date="2024-04-26"/><rect x="303" y="92" width="10" height="10" style="fill:#c6e48b;" data-score="1" data-date="2024-04-27"/><rect x="315" y="20" width="10" height="10" style="fill:#c6e48b;" data-score="1" data-date="2024-04-28"/><rect x="315" y="32" width="10" height="10" style="fill:#c6e48b;" data-score="1" data-date="2024-04-29"/><rect x="315" y="44" width="10" height="10" style="fill:#c6e48b;" data-score="1" data-date="2024-04-30"/><rect x="315" y="56" width="10" height="10" style="fill:#7bc96f;" data-score="4" data-date="2024-05-01"/><rect x="315" y="68" width="10" height="10" style="fill:#eeeeee;" data-score="0" data-date="2024-05-02"/><rect x="315" y="80" width="10" height="10" style="fill:#c6e48b;" data-score="1" data-date="2024-05-03"/><rect x="315" y="92" width="10" height="10" style="fill:#c6e48b;" data-score="1" data-date="2024-05-04"/><rect x="327" y="20" width="10" height="10" style="fill:#c6e48b;" data-score="1" data-date="2024-05-05"/><rect x="327" y="32" width="10" height="10" style="fill:#c6e48b;" data-score="3" data-date="2024-05-06"/><rect x="327" y="44" width="10" height="10" style="fill:#c6e48b;" data-score="1" data-date="2024-05-07"/><rect x="327" y="56" width="10" height="10" style="fill:#c6e48b;" data-score="1" data-date="2024-05-08"/><rect x="327" y="68" width="10" height="10" style="fill:#c6e48b;" data-score="2" data-date="2024-05-09"/><rect x="327" y="80" width="10" height="10" style="fill:#eeeeee;" data-score="0" data-date="2024-05-10"/><rect x="327" y="92" width="10" height="10" style="fill:#eeeeee;" data-score="0" data-date="2024-05-11"/><rect x="339" y="20" width="10" height="10" style="fill:#eeeeee;" data-score="0" data-date="2024-05-12"/><rect x="339" y="32" width="10" height="10" style="fill:#c6e48b;" data-score="2" data-date="2024-05-13"/><rect x="339" y="44" width="10" height="10" style="fill:#c6e48b;" data-score="2" data-date="2024-05-14"/><rect x="339" y="56" width="10" height="10" style="fill:#c6e48b;" data-score="3" data-date="2024-05-15"/><rect x="339" y="68" width="10" height="10" style="fill:#c6e48b;" data-score="1" data-date="2024-05-16"/><rect x="339" y="80" width="10" height="10" style="fill:#c6e48b;" data-score="2" data-date="2024-05-17"/><rect x="339" y="92" width="10" height="10" style="fill:#c6e48b;" data-score="1" data-date="2024-05-18"/><rect x="351" y="20" width="10" height="10" style="fill:#c6e48b;" data-score="1" data-date="2024-05-19"/><rect x="351" y="32" width="10" height="10" style="fill:#c6e48b;" data-score="3" data-date="2024-05-20"/><rect x="351" y="44" width="10" height="10" style="fill:#eeeeee;" data-score="0" data-date="2024-05-21"/><rect x="351" y="56" width="10" height="10" style="fill:#c6e48b;" data-score="1" data-date="2024-05-22"/><rect x="351" y="68" width="10" height="10" style="fill:#c6e48b;" data-score="2" data-date="2024-05-23"/><rect x="351" y="80" width="10" height="10" style="fill:#c6e48b;" data-score="1" data-date="2024-05-24"/><rect x="351" y="92" width="10" height="10" style="fill:#eeeeee;" data-score="0" data-date="2024-05-25"/><rect x="363" y="20" width="10" height="10" style="fill:#c6e48b;" data-score="1" data-date="2024-05-26"/><rect x="363" y="32" width="10" height="10" style="fill:#c6e48b;" data-score="2" data-date="2024-05-27"/><rect x="363" y="44" width="10" height="10" style="fill:#c6e48b;" data-score="2" data-date="2024-05-28"/><rect x="363" y="56" width="10" height="10" style="fill:#c6e48b;" data-score="1" data-date="2024-05-29"/><rect x="363" y="68" width="10" height="10" style="fill:#c6e48b;" data-score="1" data-date="2024-05-30"/><rect x="363" y="80" width="10" height="10" style="fill:#c6e48b;" data-score="2" data-date="2024-05-31"/><rect x="363" y="92" width="10" height="10" style="fill:#eeeeee;" data-score="0" data-date="2024-06-01"/><rect x="375" y="20" width="10" height="10" style="fill:#eeeeee;" data-score="0" data-date="2024-06-02"/><rect x="375" y="32" width="10" height="10" style="fill:#c6e48b;" data-score="1" data-date="2024-06-03"/><rect x="375" y="44" width="10" height="10" style="fill:#c6e48b;" data-score="1" data-date="2024-06-04"/><rect x="375" y="56" width="10" height="10" style="fill:#c6e48b;" data-score="3" data-date="2024-06-05"/><rect x="375" y="68" width="10" height="10" style="fill:#c6e48b;" data-score="1" data-date="2024-06-06"/><rect x="375" y="80" width="10" height="10" style="fill:#c6e48b;" data-score="1" data-date="2024-06-07"/><rect x="375" y="92" width="10" height="10" style="fill:#eeeeee;" data-score="0" data-date="2024-06-08"/><rect x="387" y="20" width="10" height="10" style="fill:#eeeeee;" data-score="0" data-date="2024-06-09"/><rect x="387" y="32" width="10" height="10" style="fill:#eeeeee;" data-score="0" data-date="2024-06-10"/><rect x="387" y="44" width="10" height="10" style="fill:#eeeeee;" data-score="0" data-date="2024-06-11"/><rect x="387" y="56" width="10" height="10" style="fill:#eeeeee;" data-score="0" data-date="2024-06-12"/><rect x="387" y="68" width="10" height="10" style="fill:#eeeeee;" data-score="0" data-date="2024-06-13"/><rect x="387" y="80" width="10" height="10" style="fill:#eeeeee;" data-score="0" data-date="2024-06-14"/><rect x="387" y="92" width="10" height="10" style="fill:#eeeeee;" data-score="0" data-date="2024-06-15"/><rect x="399" y="20" width="10" height="10" style="fill:#eeeeee;" data-score="0" data-date="2024-06-16"/><rect x="399" y="32" width="10" height="10" style="fill:#eeeeee;" data-score="0" data-date="2024-06-17"/><rect x="399" y="44" width="10" height="10" style="fill:#eeeeee;" data-score="0" data-date="2024-06-18"/><rect x="399" y="56" width="10" height="10" style="fill:#eeeeee;" data-score="0" data-date="2024-06-19"/><rect x="399" y="68" width="10" height="10" style="fill:#eeeeee;" data-score="0" data-date="2024-06-20"/><rect x="399" y="80" width="10" height="10" style="fill:#eeeeee;" data-score="0" data-date="2024-06-21"/><rect x="399" y="92" width="10" height="10" style="fill:#eeeeee;" data-score="0" data-date="2024-06-22"/><rect x="411" y="20" width="10" height="10" style="fill:#eeeeee;" data-score="0" data-date="2024-06-23"/><rect x="411" y="32" width="10" height="10" style="fill:#c6e48b;" data-score="2" data-date="2024-06-24"/><rect x="411" y="44" width="10" height="10" style="fill:#c6e48b;" data-score="1" data-date="2024-06-25"/><rect x="411" y="56" width="10" height="10" style="fill:#c6e48b;" data-score="2" data-date="2024-06-26"/><rect x="411" y="68" width="10" height="10" style="fill:#c6e48b;" data-score="2" data-date="2024-06-27"/><rect x="411" y="80" width="10" height="10" style="fill:#c6e48b;" data-score="1" data-date="2024-06-28"/><rect x="411" y="92" width="10" height="10" style="fill:#eeeeee;" data-score="0" data-date="2024-06-29"/><rect x="423" y="20" width="10" height="10" style="fill:#eeeeee;" data-score="0" data-date="2024-06-30"/><rect x="423" y="32" width="10" height="10" style="fill:#c6e48b;" data-score="2" data-date="2024-07-01"/><rect x="423" y="44" width="10" height="10" style="fill:#7bc96f;" data-score="4" data-date="2024-07-02"/><rect x="423" y="56" width="10" height="10" style="fill:#c6e48b;" data-score="1" data-date="2024-07-03"/><rect x="423" y="68" width="10" height="10" style="fill:#c6e48b;" data-score="1" data-date="2024-07-04"/><rect x="423" y="80" width="10" height="10" style="fill:#c6e48b;" data-score="3" data-date="2024-07-05"/><rect x="423" y="92" width="10" height="10" style="fill:#eeeeee;" data-score="0" data-date="2024-07-06"/><rect x="435" y="20" width="10" height="10" style="fill:#eeeeee;" data-score="0" data-date="2024-07-07"/><rect x="435" y="32" width="10" height="10" style="fill:#c6e48b;" data-score="2" data-date="2024-07-08"/><rect x="435" y="44" width="10" height="10" style="fill:#c6e48b;" data-score="1" data-date="2024-07-09"/><rect x="435" y="56" width="10" height="10" style="fill:#c6e48b;" data-score="2" data-date="2024-07-10"/><rect x="435" y="68" width="10" height="10" style="fill:#c6e48b;" data-score="1" data-date="2024-07-11"/><rect x="435" y="80" width="10" height="10" style="fill:#eeeeee;" data-score="0" data-date="2024-07-12"/><rect x="435" y="92" width="10" height="10" style="fill:#eeeeee;" data-score="0" data-date="2024-07-13"/><rect x="447" y="20" width="10" height="10" style="fill:#eeeeee;" data-score="0" data-date="2024-07-14"/><rect x="447" y="32" width="10" height="10" style="fill:#c6e48b;" data-score="1" data-date="2024-07-15"/><rect x="447" y="44" width="10" height="10" style="fill:#c6e48b;" data-score="1" data-date="2024-07-16"/><rect x="447" y="56" width="10" height="10" style="fill:#eeeeee;" data-score="0" data-date="2024-07-17"/><rect x="447" y="68" width="10" height="10" style="fill:#c6e48b;" data-score="3" data-date="2024-07-18"/><rect x="447" y="80" width="10" height="10" style="fill:#c6e48b;" data-score="2" data-date="2024-07-19"/><rect x="447" y="92" width="10" height="10" style="fill:#eeeeee;" data-score="0" data-date="2024-07-20"/><rect x="459" y="20" width="10" height="10" style="fill:#eeeeee;" data-score="0" data-date="2024-07-21"/><rect x="459" y="32" width="10" height="10" style="fill:#c6e48b;" data-score="3" data-date="2024-07-22"/><rect x="459" y="44" width="10" height="10" style="fill:#c6e48b;" data-score="1" data-date="2024-07-23"/><rect x="459" y="56" width="10" height="10" style="fill:#c6e48b;" data-score="2" data-date="2024-07-24"/><rect x="459" y="68" width="10" height="10" style="fill:#c6e48b;" data-score="1" data-date="2024-07-25"/><rect x="459" y="80" width="10" height="10" style="fill:#eeeeee;" data-score="0" data-date="2024-07-26"/><rect x="459" y="92" width="10" height="10" style="fill:#eeeeee;" data-score="0" data-date="2024-07-27"/><rect x="471" y="20" width="10" height="10" style="fill:#c6e48b;" data-score="1" data-date="2024-07-28"/><rect x="471" y="32" width="10" height="10" style="fill:#c6e48b;" data-score="1" data-date="2024-07-29"/><rect x="471" y="44" width="10" height="10" style="fill:#c6e48b;" data-score="1" data-date="2024-07-30"/><rect x="471" y="56" width="10" height="10" style="fill:#c6e48b;" data-score="1" data-date="2024-07-31"/><rect x="471" y="68" width="10" height="10" style="fill:#c6e48b;" data-score="3" data-date="2024-08-01"/><rect x="471" y="80" width="10" height="10" style="fill:#c6e48b;" data-score="1" data-date="2024-08-02"/><rect x="471" y="92" width="10" height="10" style="fill:#eeeeee;" data-score="0" data-date="2024-08-03"/><rect x="483" y="20" width="10" height="10" style="fill:#eeeeee;" data-score="0" data-date="2024-08-04"/><rect x="483" y="32" width="10" height="10" style="fill:#c6e48b;" data-score="2" data-date="2024-08-05"/><rect x="483" y="44" width="10" height="10" style="fill:#c6e48b;" data-score="3" data-date="2024-08-06"/><rect x="483" y="56" width="10" height="10" style="fill:#c6e48b;" data-score="1" data-date="2024-08-07"/><rect x="483" y="68" width="10" height="10" style="fill:#c6e48b;" data-score="3" data-date="2024-08-08"/><rect x="483" y="80" width="10" height="10" style="fill:#c6e48b;" data-score="3" data-date="2024-08-09"/><rect x="483" y="92" width="10" height="10" style="fill:#eeeeee;" data-score="0" data-date="2024-08-10"/><rect x="495" y="20" width="10" height="10" style="fill:#eeeeee;" data-score="0" data-date="2024-08-11"/><rect x="495" y="32" width="10" height="10" style="fill:#eeeeee;" data-score="0" data-date="2024-08-12"/><rect x="495" y="44" width="10" height="10" style="fill:#eeeeee;" data-score="0" data-date="2024-08-13"/><rect x="495" y="56" width="10" height="10" style="fill:#eeeeee;" data-score="0" data-date="2024-08-14"/><rect x="495" y="68" width="10" height="10" style="fill:#eeeeee;" data-score="0" data-date="2024-08-15"/><rect x="495" y="80" width="10" height="10" style="fill:#eeeeee;" data-score="0" data-date="2024-08-16"/><rect x="495" y="92" width="10" height="10" style="fill:#eeeeee;" data-score="0" data-date="2024-08-17"/><rect x="507" y="20" width="10" height="10" style="fill:#eeeeee;" data-score="0" data-date="2024-08-18"/><rect x="507" y="32" width="10" height="10" style="fill:#c6e48b;" data-score="2" data-date="2024-08-19"/><rect x="507" y="44" width="10" height="10" style="fill:#c6e48b;" data-score="2" data-date="2024-08-20"/><rect x="507" y="56" width="10" height="10" style="fill:#c6e48b;" data-score="2" data-date="2024-08-21"/><rect x="507" y="68" width="10" height="10" style="fill:#7bc96f;" data-score="4" data-date="2024-08-22"/><rect x="507" y="80" width="10" height="10" style="fill:#c6e48b;" data-score="2" data-date="2024-08-23"/><rect x="507" y="92" width="10" height="10" style="fill:#eeeeee;" data-score="0" data-date="2024-08-24"/><rect x="519" y="20" width="10" height="10" style="fill:#eeeeee;" data-score="0" data-date="2024-08-25"/><rect x="519" y="32" width="10" height="10" style="fill:#c6e48b;" data-score="2" data-date="2024-08-26"/><rect x="519" y="44" width="10" height="10" style="fill:#c6e48b;" data-score="1" data-date="2024-08-27"/><rect x="519" y="56" width="10" height="10" style="fill:#c6e48b;" data-score="1" data-date="2024-08-28"/><rect x="519" y="68" width="10" height="10" style="fill:#c6e48b;" data-score="2" data-date="2024-08-29"/><rect x="519" y="80" width="10" height="10" style="fill:#7bc96f;" data-score="4" data-date="2024-08-30"/><rect x="519" y="92" width="10" height="10" style="fill:#eeeeee;" data-score="0" data-date="2024-08-31"/><rect x="531" y="20" width="10" height="10" style="fill:#c6e48b;" data-score="3" data-date="2024-09-01"/><rect x="531" y="32" width="10" height="10" style="fill:#c6e48b;" data-score="2" data-date="2024-09-02"/><rect x="531" y="44" width="10" height="10" style="fill:#c6e48b;" data-score="3" data-date="2024-09-03"/><rect x="531" y="56" width="10" height="10" style="fill:#c6e48b;" data-score="2" data-date="2024-09-04"/><rect x="531" y="68" width="10" height="10" style="fill:#c6e48b;" data-score="2" data-date="2024-09-05"/><rect x="531" y="80" width="10" height="10" style="fill:#c6e48b;" data-score="1" data-date="2024-09-06"/><rect x="531" y="92" width="10" height="10" style="fill:#eeeeee;" data-score="0" data-date="2024-09-07"/><rect x="543" y="20" width="10" height="10" style="fill:#eeeeee;" data-score="0" data-date="2024-09-08"/><rect x="543" y="32" width="10" height="10" style="fill:#c6e48b;" data-score="1" data-date="2024-09-09"/><rect x="543" y="44" width="10" height="10" style="fill:#7bc96f;" data-score="4" data-date="2024-09-10"/><rect x="543" y="56" width="10" height="10" style="fill:#c6e48b;" data-score="3" data-date="2024-09-11"/><rect x="543" y="68" width="10" height="10" style="fill:#7bc96f;" data-score="4" data-date="2024-09-12"/><rect x="543" y="80" width="10" height="10" style="fill:#c6e48b;" data-score="1" data-date="2024-09-13"/><rect x="543" y="92" width="10" height="10" style="fill:#c6e48b;" data-score="2" data-date="2024-09-14"/><rect x="555" y="20" width="10" height="10" style="fill:#eeeeee;" data-score="0" data-date="2024-09-15"/><rect x="555" y="32" width="10" height="10" style="fill:#c6e48b;" data-score="2" data-date="2024-09-16"/><rect x="555" y="44" width="10" height="10" style="fill:#c6e48b;" data-score="2" data-date="2024-09-17"/><rect x="555" y="56" width="10" height="10" style="fill:#eeeeee;" data-score="0" data-date="2024-09-18"/><rect x="555" y="68" width="10" height="10" style="fill:#7bc96f;" data-score="4" data-date="2024-09-19"/><rect x="555" y="80" width="10" height="10" style="fill:#c6e48b;" data-score="3" data-date="2024-09-20"/><rect x="555" y="92" width="10" height="10" style="fill:#c6e48b;" data-score="1" data-date="2024-09-21"/><rect x="567" y="20" width="10" height="10" style="fill:#c6e48b;" data-score="1" data-date="2024-09-22"/><rect x="567" y="32" width="10" height="10" style="fill:#c6e48b;" data-score="1" data-date="2024-09-23"/><rect x="567" y="44" width="10" height="10" style="fill:#c6e48b;" data-score="1" data-date="2024-09-24"/><rect x="567" y="56" width="10" height="10" style="fill:#c6e48b;" data-score="1" data-date="2024-09-25"/><rect x="567" y="68" width="10" height="10" style="fill:#c6e48b;" data-score="3" data-date="2024-09-26"/><rect x="567" y="80" width="10" height="10" style="fill:#c6e48b;" data-score="1" data-date="2024-09-27"/><rect x="567" y="92" width="10" height="10" style="fill:#c6e48b;" data-score="1" data-date="2024-09-28"/><rect x="579" y="20" width="10" height="10" style="fill:#eeeeee;" data-score="0" data-date="2024-09-29"/><rect x="579" y="32" width="10" height="10" style="fill:#eeeeee;" data-score="0" data-date="2024-09-30"/><rect x="579" y="44" width="10" height="10" style="fill:#c6e48b;" data-score="1" data-date="2024-10-01"/><rect x="579" y="56" width="10" height="10" style="fill:#c6e48b;" data-score="1" data-date="2024-10-02"/><rect x="579" y="68" width="10" height="10" style="fill:#c6e48b;" data-score="1" data-date="2024-10-03"/><rect x="579" y="80" width="10" height="10" style="fill:#c6e48b;" data-score="1" data-date="2024-10-04"/><rect x="579" y="92" width="10" height="10" style="fill:#eeeeee;" data-score="0" data-date="2024-10-05"/><rect x="591" y="20" width="10" height="10" style="fill:#eeeeee;" data-score="0" data-date="2024-10-06"/><rect x="591" y="32" width="10" height="10" style="fill:#eeeeee;" data-score="0" data-date="2024-10-07"/><rect x="591" y="44" width="10" height="10" style="fill:#eeeeee;" data-score="0" data-date="2024-10-08"/><rect x="591" y="56" width="10" height="10" style="fill:#eeeeee;" data-score="0" data-date="2024-10-09"/><rect x="591" y="68" width="10" height="10" style="fill:#c6e48b;" data-score="2" data-date="2024-10-10"/><rect x="591" y="80" width="10" height="10" style="fill:#c6e48b;" data-score="1" data-date="2024-10-11"/><rect x="591" y="92" width="10" height="10" style="fill:#c6e48b;" data-score="2" data-date="2024-10-12"/><rect x="603" y="20" width="10" height="10" style="fill:#c6e48b;" data-score="1" data-date="2024-10-13"/><rect x="603" y="32" width="10" height="10" style="fill:#c6e48b;" data-score="1" data-date="2024-10-14"/><rect x="603" y="44" width="10" height="10" style="fill:#c6e48b;" data-score="3" data-date="2024-10-15"/><rect x="603" y="56" width="10" height="10" style="fill:#eeeeee;" data-score="0" data-date="2024-10-16"/><rect x="603" y="68" width="10" height="10" style="fill:#c6e48b;" data-score="1" data-date="2024-10-17"/><rect x="603" y="80" width="10" height="10" style="fill:#eeeeee;" data-score="0" data-date="2024-10-18"/><rect x="603" y="92" width="10" height="10" style="fill:#eeeeee;" data-score="0" data-date="2024-10-19"/><rect x="615" y="20" width="10" height="10" style="fill:#c6e48b;" data-score="3" data-date="2024-10-20"/><rect x="615" y="32" width="10" height="10" style="fill:#c6e48b;" data-score="1" data-date="2024-10-21"/><rect x="615" y="44" width="10" height="10" style="fill:#c6e48b;" data-score="3" data-date="2024-10-22"/><rect x="615" y="56" width="10" height="10" style="fill:#c6e48b;" data-score="1" data-date="2024-10-23"/><rect x="615" y="68" width="10" height="10" style="fill:#c6e48b;" data-score="3" data-date="2024-10-24"/><rect x="615" y="80" width="10" height="10" style="fill:#c6e48b;" data-score="2" data-date="2024-10-25"/><rect x="615" y="92" width="10" height="10" style="fill:#eeeeee;" data-score="0" data-date="2024-10-26"/><rect x="627" y="20" width="10" height="10" style="fill:#c6e48b;" data-score="2" data-date="2024-10-27"/><rect x="627" y="32" width="10" height="10" style="fill:#c6e48b;" data-score="3" data-date="2024-10-28"/><rect x="627" y="44" width="10" height="10" style="fill:#c6e48b;" data-score="3" data-date="2024-10-29"/><rect x="627" y="56" width="10" height="10" style="fill:#c6e48b;" data-score="2" data-date="2024-10-30"/><rect x="627" y="68" width="10" height="10" style="fill:#eeeeee;" data-score="0" data-date="2024-10-31"/><rect x="627" y="80" width="10" height="10" style="fill:#c6e48b;" data-score="1" data-date="2024-11-01"/><rect x="627" y="92" width="10" height="10" style="fill:#c6e48b;" data-score="1" data-date="2024-11-02"/><rect x="639" y="20" width="10" height="10" style="fill:#c6e48b;" data-score="1" data-date="2024-11-03"/><rect x="639" y="32" width="10" height="10" style="fill:#eeeeee;" data-score="0" data-date="2024-11-04"/><rect x="639" y="44" width="10" height="10" style="fill:#eeeeee;" data-score="0" data-date="2024-11-05"/><rect x="639" y="56" width="10" height="10" style="fill:#eeeeee;" data-score="0" data-date="2024-11-06"/><rect x="639" y="68" width="10" height="10" style="fill:#eeeeee;" data-score="0" data-date="2024-11-07"/><rect x="639" y="80" width="10" height="10" style="fill:#c6e48b;" data-score="1" data-date="2024-11-08"/><rect x="639" y="92" width="10" height="10" style="fill:#c6e48b;" data-score="2" data-date="2024-11-09"/><rect x="651" y="20" width="10" height="10" style="fill:#c6e48b;" data-score="3" data-date="2024-11-10"/><rect x="651" y="32" width="10" height="10" style="fill:#c6e48b;" data-score="2" data-date="2024-11-11"/><rect x="651" y="44" width="10" height="10" style="fill:#c6e48b;" data-score="1" data-date="2024-11-12"/><rect x="651" y="56" width="10" height="10" style="fill:#eeeeee;" data-score="0" data-date=""/><rect x="651" y="68" width="10" height="10" style="fill:#eeeeee;" data-score="0" data-date=""/><rect x="651" y="80" width="10" height="10" style="fill:#eeeeee;" data-score="0" data-date=""/><rect x="651" y="92" width="10" height="10" style="fill:#eeeeee;" data-score="0" data-date=""/><text x="0" y="40" style="fill:#767676;text-anchor:start;text-align:center;font-family:-apple-system, BlinkMacSystemFont, 'Segoe UI', Helvetica, Arial, sans-serif, 'Apple Color Emoji', 'Segoe UI Emoji', 'Segoe UI Symbol';white-space:nowrap;font-size:9px;display:block;">Mon</text><text x="0" y="64" style="fill:#767676;text-anchor:start;text-align:center;font-family:-apple-system, BlinkMacSystemFont, 'Segoe UI', Helvetica, Arial, sans-serif, 'Apple Color Emoji', 'Segoe UI Emoji', 'Segoe UI Symbol';white-space:nowrap;font-size:9px;display:block;">Wed</text><text x="0" y="88" style="fill:#767676;text-anchor:start;text-align:center;font-family:-apple-system, BlinkMacSystemFont, 'Segoe UI', Helvetica, Arial, sans-serif, 'Apple Color Emoji', 'Segoe UI Emoji', 'Segoe UI Symbol';white-space:nowrap;font-size:9px;display:block;">Fri</text><text x="27" y="10" style="fill:#767676;text-anchor:start;text-align:center;font-family:-apple-system, BlinkMacSystemFont, 'Segoe UI', Helvetica, Arial, sans-serif, 'Apple Color Emoji', 'Segoe UI Emoji', 'Segoe UI Symbol';white-space:nowrap;font-size:10px;">Nov</text><text x="78" y="10" style="fill:#767676;text-anchor:start;text-align:center;font-family:-apple-system, BlinkMacSystemFont, 'Segoe UI', Helvetica, Arial, sans-serif, 'Apple Color Emoji', 'Segoe UI Emoji', 'Segoe UI Symbol';white-space:nowrap;font-size:10px;">Dec</text><text x="129" y="10" style="fill:#767676;text-anchor:start;text-align:center;font-family:-apple-system, BlinkMacSystemFont, 'Segoe UI', Helvetica, Arial, sans-serif, 'Apple Color Emoji', 'Segoe UI Emoji', 'Segoe UI Symbol';white-space:nowrap;font-size:10px;">Jan</text><text x="181" y="10" style="fill:#767676;text-anchor:start;text-align:center;font-family:-apple-system, BlinkMacSystemFont, 'Segoe UI', Helvetica, Arial, sans-serif, 'Apple Color Emoji', 'Segoe UI Emoji', 'Segoe UI Symbol';white-space:nowrap;font-size:10px;">Feb</text><text x="232" y="10" style="fill:#767676;text-anchor:start;text-align:center;font-family:-apple-system, BlinkMacSystemFont, 'Segoe UI', Helvetica, Arial, sans-serif, 'Apple Color Emoji', 'Segoe UI Emoji', 'Segoe UI Symbol';white-space:nowrap;font-size:10px;">Mar</text><text x="284" y="10" style="fill:#767676;text-anchor:start;text-align:center;font-family:-apple-system, BlinkMacSystemFont, 'Segoe UI', Helvetica, Arial, sans-serif, 'Apple Color Emoji', 'Segoe UI Emoji', 'Segoe UI Symbol';white-space:nowrap;font-size:10px;">Apr</text><text x="335" y="10" style="fill:#767676;text-anchor:start;text-align:center;font-family:-apple-system, BlinkMacSystemFont, 'Segoe UI', Helvetica, Arial, sans-serif, 'Apple Color Emoji', 'Segoe UI Emoji', 'Segoe UI Symbol';white-space:nowrap;font-size:10px;">May</text><text x="387" y="10" style="fill:#767676;text-anchor:start;text-align:center;font-family:-apple-system, BlinkMacSystemFont, 'Segoe UI', Helvetica, Arial, sans-serif, 'Apple Color Emoji', 'Segoe UI Emoji', 'Segoe UI Symbol';white-space:nowrap;font-size:10px;">Jun</text><text x="438" y="10" style="fill:#767676;text-anchor:start;text-align:center;font-family:-apple-system, BlinkMacSystemFont, 'Segoe UI', Helvetica, Arial, sans-serif, 'Apple Color Emoji', 'Segoe UI Emoji', 'Segoe UI Symbol';white-space:nowrap;font-size:10px;">Jul</text><text x="489" y="10" style="fill:#767676;text-anchor:start;text-align:center;font-family:-apple-system, BlinkMacSystemFont, 'Segoe UI', Helvetica, Arial, sans-serif, 'Apple Color Emoji', 'Segoe UI Emoji', 'Segoe UI Symbol';white-space:nowrap;font-size:10px;">Aug</text><text x="541" y="10" style="fill:#767676;text-anchor:start;text-align:center;font-family:-apple-system, BlinkMacSystemFont, 'Segoe UI', Helvetica, Arial, sans-serif, 'Apple Color Emoji', 'Segoe UI Emoji', 'Segoe UI Symbol';white-space:nowrap;font-size:10px;">Sep</text><text x="592" y="10" style="fill:#767676;text-anchor:start;text-align:center;font-family:-apple-system, BlinkMacSystemFont, 'Segoe UI', Helvetica, Arial, sans-serif, 'Apple Color Emoji', 'Segoe UI Emoji', 'Segoe UI Symbol';white-space:nowrap;font-size:10px;">Oct</text></svg>